<?xml version="1.0" standalone="no"?>
<!DOCTYPE svg PUBLIC "-//W3C//DTD SVG 20010904//EN"
 "http://www.w3.org/TR/2001/REC-SVG-20010904/DTD/svg10.dtd">
<svg version="1.0" xmlns="http://www.w3.org/2000/svg"
 width="2000.000000pt" height="2000.000000pt" viewBox="0 0 2000.000000 2000.000000"
 preserveAspectRatio="xMidYMid meet">
<metadata>
Created by potrace 1.14, written by Peter Selinger 2001-2017
</metadata>
<g transform="translate(0.000000,2000.000000) scale(0.100000,-0.100000)"
fill="#000000" stroke="none">
<path d="M5512 16442 l-4162 -2367 0 -4156 c0 -3313 3 -4159 13 -4167 22 -18
8192 -4615 8202 -4615 11 0 8317 4584 8313 4588 -2 2 -680 389 -1508 860
-1346 768 -1507 857 -1530 848 -14 -5 -1194 -650 -2623 -1432 l-2598 -1422
-2592 1449 -2592 1448 0 2413 0 2412 2490 1440 c1370 792 2560 1480 2646 1530
l157 90 2573 -1477 c1415 -812 2583 -1481 2595 -1486 18 -9 233 112 1550 872
841 485 1532 885 1536 889 4 4 -6616 3709 -8252 4618 l-57 31 -4161 -2366z"/>
<path d="M9027 14332 l-646 -377 -3 -1927 -3 -1927 -320 184 -320 183 -3 1551
c-1 853 -4 1551 -6 1551 -1 0 -608 -339 -1347 -754 -1147 -643 -1344 -756
-1343 -775 1 -25 0 -25 -31 -5 l-25 16 0 -2084 0 -2085 2213 -1270 2212 -1270
5 2057 5 2058 125 -74 c69 -41 129 -74 134 -74 5 0 67 34 137 75 71 41 131 75
134 75 3 0 6 -926 7 -2059 l3 -2058 2213 1270 2212 1270 0 2084 0 2085 -34
-22 -35 -21 2 27 c2 25 -57 60 -1342 780 -739 415 -1346 754 -1348 754 -1 0
-3 -699 -3 -1552 l0 -1553 -318 -182 c-176 -101 -322 -183 -325 -183 -4 0 -7
867 -7 1928 l-1 1927 -591 345 c-326 190 -617 359 -648 377 l-56 32 -647 -377z"/>
</g>
</svg>
